<svg xmlns="http://www.w3.org/2000/svg" width="530" height="246" viewBox="0 0 530 246">
<linearGradient id="a" gradientUnits="userSpaceOnUse" x1="7.382" y1="91.183" x2="117.597" y2="154.816">
<stop offset="0" stop-color="#F5AAA2"/><stop offset=".195" stop-color="#F5CBC9"/>
<stop offset=".208" stop-color="#F5C8C5"/>
<stop offset=".397" stop-color="#F79C95"/>
<stop offset=".577" stop-color="#F87A6F"/>
<stop offset=".742" stop-color="#F96154"/>
<stop offset=".888" stop-color="#FA5244"/>
<stop offset="1" stop-color="#FA4D3E"/>
</linearGradient>
<path d="M3.3 157.9c4-11 14.7-29.8 32.2-56.6 17.5-26.7 28-45 31.6-55 3.6-10 4.7-17.8 3.3-23.6-1.4-5.7-3.3-15.4-10.4-22.7 30.7 21.3 51.4 35.6 59 47.5 7.7 12 9 25 3.9 39.1-5.1 14.1-16.2 33.6-33.2 58.5-17 24.9-27.4 42.7-31.3 53.4-6.2 17.2-5.4 34.6 6.6 47.5-23.8-15.7-43.8-27.6-54.6-41.7-10.9-14.1-13.2-29.5-7.1-46.4z" fill="url(#a)"/>
<linearGradient id="b" gradientUnits="userSpaceOnUse" x1="19.695" y1="211.122" x2="105.753" y2="62.066">
<stop offset=".227" stop-color="#FA4D3E" stop-opacity=".7"/>
<stop offset=".344" stop-color="#F96557" stop-opacity=".593"/>
<stop offset=".525" stop-color="#F78378" stop-opacity=".43"/>
<stop offset=".698" stop-color="#F6988F" stop-opacity=".273"/>
<stop offset=".86" stop-color="#F5A69D" stop-opacity=".126"/>
<stop offset="1" stop-color="#F5AAA2" stop-opacity="0"/>
</linearGradient>
<path d="M50.2 228.7c-15.2-9.9-28.1-18.7-35.5-28.3-9-11.7-10.9-24.2-5.8-38.3 3.5-9.6 13.1-26.4 28.5-50.1 16-24.4 25.4-40.8 28.8-50.2 3.5-9.7 35-6.7 40.4 1.8 6.3 9.8 7.4 20.3 3.1 32-4.5 12.3-14.4 29.8-29.4 51.8-15.6 22.9-24.9 38.8-28.5 48.7-4.3 11.9-4.8 23.1-1.6 32.6z" fill="url(#b)"/>
<path d="M112.9 219.4h24.3v6.2h-31.2v-57.1h6.9v50.9zM147 191.6v-6.7c3.2-2 7.5-3 12.7-3 10.8 0 16.2 5.5 16.2 16.4v27.2h-6.6v-5.1c-2.2 3.7-6.2 5.5-12 5.5-4 0-7.2-1.2-9.7-3.6s-3.7-5.4-3.7-9c0-4.1 1.6-7.3 4.7-9.6s7.4-3.4 12.8-3.4h7.8v-2.2c0-3.4-.8-5.9-2.3-7.7-1.5-1.7-4.1-2.6-7.7-2.6-4.5.2-8.6 1.4-12.2 3.8zm22.2 14.2h-7.5c-3.6 0-6.3.7-8.1 2.1-1.8 1.4-2.7 3.2-2.7 5.3 0 2.1.7 3.9 2.1 5.2 1.4 1.3 3.5 2 6.2 2 3 0 5.5-.9 7.3-2.6 1.8-1.7 2.7-3.9 2.7-6.6v-5.4zM194.4 182.6v7.5c2.3-5.3 6.2-8 11.7-8 1 0 1.8.1 2.4.2v6.6c-1.2-.4-2.4-.6-3.6-.6-3 0-5.5 1.4-7.5 4.1-2 2.8-3 6-3 9.6v23.5h-6.7l.1-42.9h6.6zM216.3 191.6v-6.7c3.2-2 7.5-3 12.7-3 10.8 0 16.2 5.5 16.2 16.4v27.2h-6.6v-5.1c-2.2 3.7-6.2 5.5-12 5.5-4 0-7.2-1.2-9.7-3.6s-3.7-5.4-3.7-9c0-4.1 1.6-7.3 4.7-9.6s7.4-3.4 12.8-3.4h7.8v-2.2c0-3.4-.8-5.9-2.3-7.7-1.5-1.7-4.1-2.6-7.7-2.6-4.6.2-8.7 1.4-12.2 3.8zm22.2 14.2h-7.5c-3.6 0-6.3.7-8.1 2.1-1.8 1.4-2.7 3.2-2.7 5.3 0 2.1.7 3.9 2.1 5.2 1.4 1.3 3.5 2 6.2 2 3 0 5.5-.9 7.3-2.6 1.8-1.7 2.7-3.9 2.7-6.6v-5.4zM267.9 225.6l-15-42.9h6.9l5.9 18.1 6.3 19.6c.5-2.4 2.6-8.9 6.4-19.6l6.1-18.1h6.9l-15.3 42.9h-8.2zM331.1 217.1v6.3c-3.3 1.8-7.4 2.6-12.2 2.6-6.5 0-11.7-2-15.7-6s-6-9.2-6-15.8c0-6.8 1.8-12.2 5.3-16.2 3.6-4 8.1-5.9 13.7-5.9 5.4 0 9.6 1.7 12.8 5.2 3.2 3.4 4.7 8.3 4.7 14.6 0 1.8-.1 3.5-.4 5h-29.3c.5 4.2 2.1 7.5 4.8 9.7 2.7 2.3 6.3 3.4 10.7 3.4 4.9.1 8.7-.9 11.6-2.9zm-4-15.7v-1.7c0-3.6-1-6.4-2.9-8.5-1.9-2.1-4.6-3.2-8-3.2-3.2 0-6 1.2-8.2 3.5-2.3 2.3-3.6 5.6-4 9.9h23.1zM344.3 225.6v-59.9h6.7v59.9h-6.7zM416.7 175.8h-23.6v18.7h20.7v7.3h-20.7v23.8h-8.7v-57.1h32.3v7.3zM426.6 173.2c-1-1-1.5-2.2-1.5-3.7s.5-2.7 1.5-3.7 2.2-1.5 3.7-1.5 2.7.5 3.7 1.5 1.5 2.3 1.5 3.7c0 1.4-.5 2.6-1.5 3.6s-2.3 1.5-3.7 1.5c-1.4.1-2.7-.4-3.7-1.4zm-.4 52.4v-42.9h8.4v42.9h-8.4zM454.9 182.6v7.5c2.1-5.3 5.8-8 11.3-8 .8 0 1.7.1 2.6.3v8.1c-1.2-.5-2.5-.8-4-.8-2.9 0-5.2 1.3-7.1 3.8-1.9 2.5-2.8 5.6-2.8 9.1v22.9h-8.3v-42.9h8.3zM507.3 215.8v7.5c-3.2 1.8-7.3 2.7-12.5 2.7-6.7 0-12-2-15.9-6-4-4-5.9-9.3-5.9-15.7 0-6.9 1.8-12.3 5.4-16.2 3.6-3.9 8.2-5.9 13.8-5.9 5.5 0 9.8 1.7 13 5.1 3.2 3.4 4.8 8.3 4.8 14.8 0 1.8-.2 3.6-.5 5.5h-28.2c.6 3.7 2.1 6.6 4.7 8.6s5.9 3 9.8 3c4.6-.1 8.4-1.2 11.5-3.4zm-5.3-14.8v-1.5c-.1-3.2-1-5.8-2.6-7.7-1.6-1.9-4-2.8-7-2.8-2.8 0-5.2 1-7.3 3.1-2 2.1-3.3 5-3.8 8.9h20.7z"/>
</svg>